<svg id="Layer_1" data-name="Layer 1" xmlns="http://www.w3.org/2000/svg" viewBox="0 0 249.98 250"><defs><style>.cls-1{fill:#fecc43;}.cls-2{fill:#403219;}.cls-3{fill:#3b3116;opacity:0.39;isolation:isolate;}</style></defs><g id="cracker_ver_1" data-name="cracker ver 1"><path id="Path_74" data-name="Path 74" class="cls-1" d="M243.88,93.5A33.64,33.64,0,0,0,221,69.9a33.63,33.63,0,0,0-40.41-40.64,33.62,33.62,0,0,0-55.32-15A33.62,33.62,0,0,0,69.9,29,33.64,33.64,0,0,0,29.26,69.38a33.63,33.63,0,0,0-15,55.32A33.63,33.63,0,0,0,29,180.1a33.64,33.64,0,0,0,40.42,40.64,33.63,33.63,0,0,0,55.32,15A33.63,33.63,0,0,0,180.1,221a33.64,33.64,0,0,0,40.64-40.42,33.63,33.63,0,0,0,15-55.32A33.63,33.63,0,0,0,243.88,93.5Z" transform="translate(0 0)"/><path class="cls-2" d="M147.87,250a38.3,38.3,0,0,1-23.2-7.75A38.63,38.63,0,0,1,66.1,226.38a38.91,38.91,0,0,1-13.56-.83A38.63,38.63,0,0,1,23.3,183.34,38.81,38.81,0,0,1,12,175.85a38.63,38.63,0,0,1-4.23-51.18,38.77,38.77,0,0,1-6-12.13A38.61,38.61,0,0,1,23.62,66.1a38.86,38.86,0,0,1,.83-13.55A38.62,38.62,0,0,1,66.66,23.3,39,39,0,0,1,74.14,12a38.64,38.64,0,0,1,51.19-4.23A38.61,38.61,0,0,1,183.9,23.62a38.86,38.86,0,0,1,13.55.83A38.62,38.62,0,0,1,226.7,66.66a38.94,38.94,0,0,1,22,25.55h0a38.91,38.91,0,0,1-6.47,33.11,38.63,38.63,0,0,1-15.86,58.59,38.82,38.82,0,0,1-.83,13.54,38.62,38.62,0,0,1-42.21,29.25A38.81,38.81,0,0,1,175.85,238a38.34,38.34,0,0,1-27,12ZM124.7,230.72a5,5,0,0,1,3.45,1.38,28.62,28.62,0,0,0,40.46-1,28.75,28.75,0,0,0,6.7-11.52,5,5,0,0,1,6-3.42,28.63,28.63,0,0,0,34.6-34.41,5,5,0,0,1,3.46-6,28.61,28.61,0,0,0,19.38-35.53,28.75,28.75,0,0,0-6.63-11.56,5,5,0,0,1,0-6.88A28.75,28.75,0,0,0,239,94.78h0A28.8,28.8,0,0,0,219.6,74.69a5,5,0,0,1-3.43-6,28.62,28.62,0,0,0-34.4-34.6,5,5,0,0,1-6-3.46,28.63,28.63,0,0,0-47.09-12.75,5,5,0,0,1-6.88,0A28.62,28.62,0,0,0,74.69,30.4a5,5,0,0,1-6,3.42A28.63,28.63,0,0,0,34.16,54.9a28.87,28.87,0,0,0,0,13.33,5,5,0,0,1-3.46,6,28.61,28.61,0,0,0-19.38,35.53,28.75,28.75,0,0,0,6.63,11.56,5,5,0,0,1,0,6.88,28.63,28.63,0,0,0,12.5,47.16,5,5,0,0,1,3.42,6,28.63,28.63,0,0,0,34.41,34.6,5,5,0,0,1,6,3.46,28.61,28.61,0,0,0,35.53,19.38,28.75,28.75,0,0,0,11.56-6.63A5,5,0,0,1,124.7,230.72Z" transform="translate(0 0)"/><g id="Group_55" data-name="Group 55"><g id="Group_52" data-name="Group 52"><circle id="Ellipse_24" data-name="Ellipse 24" class="cls-3" cx="96.4" cy="75.16" r="6"/><circle id="Ellipse_25" data-name="Ellipse 25" class="cls-3" cx="153.87" cy="75.32" r="6"/></g><g id="Group_53" data-name="Group 53"><circle id="Ellipse_26" data-name="Ellipse 26" class="cls-3" cx="96.13" cy="174.7" r="6"/><circle id="Ellipse_27" data-name="Ellipse 27" class="cls-3" cx="153.6" cy="174.85" r="6"/></g><g id="Group_54" data-name="Group 54"><circle id="Ellipse_28" data-name="Ellipse 28" class="cls-3" cx="67.53" cy="124.85" r="6"/><circle id="Ellipse_29" data-name="Ellipse 29" class="cls-3" cx="125" cy="125.01" r="6"/><circle id="Ellipse_30" data-name="Ellipse 30" class="cls-3" cx="182.46" cy="125.16" r="6"/></g></g></g></svg>